# xmcd
#
# Track frame offsets:
#	150
#	21755
#	41285
#	70677
#	94877
#	119357
#	137932
#	157782
#	184320
#	205525
#	218752
#	235322
#	257780
#	273655
#
# Disc length: 3832 seconds
#
# Revision: 1
# Processed by: cddbd v1.5.2PL0 Copyright (c) Steve Scherf et al.
# Submitted via: audiograbber 1.83.01
#
DISCID=c40ef60e
DTITLE=Milton Dornellas - Ancestrais (Com quinteto da paraíba)
DYEAR=1998
DGENRE=
TTITLE0=No ventre da besta
TTITLE1=Talo de capim
TTITLE2=Mandrágora
TTITLE3=Ancestrais
TTITLE4=Mamma jaz
TTITLE5=Deixa estar
TTITLE6=A ira da íris
TTITLE7=Camisa amarela
TTITLE8=Barqueiro de luanda
TTITLE9=Meu canto tem velas
TTITLE10=Bolero de bordel
TTITLE11=Cheiro de ervas
TTITLE12=Centauro
TTITLE13=Cantiga da chegança
EXTD=
EXTT0=
EXTT1=
EXTT2=
EXTT3=
EXTT4=
EXTT5=
EXTT6=
EXTT7=
EXTT8=
EXTT9=
EXTT10=
EXTT11=
EXTT12=
EXTT13=
PLAYORDER=
